<?xml version="1.0" encoding="UTF-8" standalone="no"?>
<!DOCTYPE svg PUBLIC "-//W3C//DTD SVG 1.1//EN" "http://www.w3.org/Graphics/SVG/1.1/DTD/svg11.dtd">
<!-- Created with Vectornator (http://vectornator.io/) -->
<svg height="100%" stroke-miterlimit="10" style="fill-rule:nonzero;clip-rule:evenodd;stroke-linecap:round;stroke-linejoin:round;" version="1.1" viewBox="0 0 442.6 63.9517" width="100%" xml:space="preserve" xmlns="http://www.w3.org/2000/svg" xmlns:xlink="http://www.w3.org/1999/xlink">
<defs>
<linearGradient gradientTransform="matrix(1 0 0 1 -51.3751 -115.862)" gradientUnits="userSpaceOnUse" id="LinearGradient" x1="78.3055" x2="487.103" y1="124.562" y2="171.459">
<stop offset="0" stop-color="#639ed2"/>
<stop offset="1" stop-color="#22cacb"/>
</linearGradient>
</defs>
<clipPath id="ArtboardFrame">
<rect height="63.9517" width="442.6" x="0" y="0"/>
</clipPath>
<g clip-path="url(#ArtboardFrame)" id="Layer-2" visibility="hidden">
<path d="M0 0L419.58 0L419.58 297.675L0 297.675L0 0Z" fill="#0d1116" fill-rule="nonzero" opacity="1" stroke="none"/>
</g>
<g id="Layer-1">
<g fill="url(#LinearGradient)" opacity="1" stroke="none">
<path d="M42.9149 44.9758C42.2587 44.9758 41.7196 44.7649 41.2977 44.343C40.8759 43.9212 40.6649 43.3821 40.6649 42.7258C40.6649 42.1165 40.8759 41.6008 41.2977 41.179C41.7196 40.7102 42.2587 40.4758 42.9149 40.4758L56.4149 40.4758C57.0243 40.4758 57.5399 40.7102 57.9618 41.179C58.4305 41.6008 58.6649 42.1165 58.6649 42.7258C58.6649 43.3821 58.4305 43.9212 57.9618 44.343C57.5399 44.7649 57.0243 44.9758 56.4149 44.9758L42.9149 44.9758ZM38.4149 40.4758C37.7587 40.4758 37.2196 40.2649 36.7977 39.843C36.3759 39.4212 36.1649 38.8821 36.1649 38.2258L36.1649 26.9758L29.4149 26.9758C28.7587 26.9758 28.2196 26.7649 27.7977 26.343C27.3759 25.9212 27.1649 25.3821 27.1649 24.7258C27.1649 24.1165 27.3759 23.6008 27.7977 23.179C28.2196 22.7102 28.7587 22.4758 29.4149 22.4758L36.1649 22.4758L36.1649 15.7258C36.1649 15.1165 36.3759 14.6008 36.7977 14.179C37.2196 13.7102 37.7587 13.4758 38.4149 13.4758C39.0243 13.4758 39.5399 13.7102 39.9618 14.179C40.4305 14.6008 40.6649 15.1165 40.6649 15.7258L40.6649 22.4758L56.4149 22.4758C57.0243 22.4758 57.5399 22.7102 57.9618 23.179C58.4305 23.6008 58.6649 24.1165 58.6649 24.7258C58.6649 25.3821 58.4305 25.9212 57.9618 26.343C57.5399 26.7649 57.0243 26.9758 56.4149 26.9758L40.6649 26.9758L40.6649 38.2258C40.6649 38.8821 40.4305 39.4212 39.9618 39.843C39.5399 40.2649 39.0243 40.4758 38.4149 40.4758Z"/>
<path d="M112.665 44.9758C112.009 44.9758 111.47 44.7649 111.048 44.343C110.626 43.9212 110.415 43.3821 110.415 42.7258L110.415 29.2258C110.415 28.6165 110.626 28.1008 111.048 27.679C111.47 27.2102 112.009 26.9758 112.665 26.9758C113.274 26.9758 113.79 27.2102 114.212 27.679C114.681 28.1008 114.915 28.6165 114.915 29.2258L114.915 42.7258C114.915 43.3821 114.681 43.9212 114.212 44.343C113.79 44.7649 113.274 44.9758 112.665 44.9758ZM85.6649 44.9758C85.0087 44.9758 84.4696 44.7649 84.0477 44.343C83.6259 43.9212 83.4149 43.3821 83.4149 42.7258L83.4149 15.7258C83.4149 15.1165 83.6259 14.6008 84.0477 14.179C84.4696 13.7102 85.0087 13.4758 85.6649 13.4758C86.2743 13.4758 86.7899 13.7102 87.2118 14.179C87.6805 14.6008 87.9149 15.1165 87.9149 15.7258L87.9149 22.4758L108.165 22.4758C108.774 22.4758 109.29 22.7102 109.712 23.179C110.181 23.6008 110.415 24.1165 110.415 24.7258C110.415 25.3821 110.181 25.9212 109.712 26.343C109.29 26.7649 108.774 26.9758 108.165 26.9758L87.9149 26.9758L87.9149 42.7258C87.9149 43.3821 87.6805 43.9212 87.2118 44.343C86.7899 44.7649 86.2743 44.9758 85.6649 44.9758Z"/>
<path d="M146.415 44.9758C145.759 44.9758 145.22 44.7649 144.798 44.343C144.376 43.9212 144.165 43.3821 144.165 42.7258C144.165 42.1165 144.376 41.6008 144.798 41.179C145.22 40.7102 145.759 40.4758 146.415 40.4758L164.415 40.4758C165.024 40.4758 165.54 40.7102 165.962 41.179C166.431 41.6008 166.665 42.1165 166.665 42.7258C166.665 43.3821 166.431 43.9212 165.962 44.343C165.54 44.7649 165.024 44.9758 164.415 44.9758L146.415 44.9758ZM141.915 40.4758C141.259 40.4758 140.72 40.2649 140.298 39.843C139.876 39.4212 139.665 38.8821 139.665 38.2258L139.665 29.2258C139.665 28.6165 139.876 28.1008 140.298 27.679C140.72 27.2102 141.259 26.9758 141.915 26.9758C142.524 26.9758 143.04 27.2102 143.462 27.679C143.931 28.1008 144.165 28.6165 144.165 29.2258L144.165 31.4758L164.415 31.4758C165.024 31.4758 165.54 31.7102 165.962 32.179C166.431 32.6008 166.665 33.1165 166.665 33.7258C166.665 34.3821 166.431 34.9212 165.962 35.343C165.54 35.7649 165.024 35.9758 164.415 35.9758L144.165 35.9758L144.165 38.2258C144.165 38.8821 143.931 39.4212 143.462 39.843C143.04 40.2649 142.524 40.4758 141.915 40.4758ZM168.915 31.4758C168.259 31.4758 167.72 31.2649 167.298 30.843C166.876 30.4212 166.665 29.8821 166.665 29.2258C166.665 28.6165 166.876 28.1008 167.298 27.679C167.72 27.2102 168.259 26.9758 168.915 26.9758C169.524 26.9758 170.04 27.2102 170.462 27.679C170.931 28.1008 171.165 28.6165 171.165 29.2258C171.165 29.8821 170.931 30.4212 170.462 30.843C170.04 31.2649 169.524 31.4758 168.915 31.4758ZM146.415 26.9758C145.759 26.9758 145.22 26.7649 144.798 26.343C144.376 25.9212 144.165 25.3821 144.165 24.7258C144.165 24.1165 144.376 23.6008 144.798 23.179C145.22 22.7102 145.759 22.4758 146.415 22.4758L164.415 22.4758C165.024 22.4758 165.54 22.7102 165.962 23.179C166.431 23.6008 166.665 24.1165 166.665 24.7258C166.665 25.3821 166.431 25.9212 165.962 26.343C165.54 26.7649 165.024 26.9758 164.415 26.9758L146.415 26.9758Z"/>
<path d="M211.665 44.9758C211.009 44.9758 210.47 44.7649 210.048 44.343C209.626 43.9212 209.415 43.3821 209.415 42.7258C209.415 42.1165 209.626 41.6008 210.048 41.179C210.47 40.7102 211.009 40.4758 211.665 40.4758L225.165 40.4758C225.774 40.4758 226.29 40.7102 226.712 41.179C227.181 41.6008 227.415 42.1165 227.415 42.7258C227.415 43.3821 227.181 43.9212 226.712 44.343C226.29 44.7649 225.774 44.9758 225.165 44.9758L211.665 44.9758ZM207.165 40.4758C206.509 40.4758 205.97 40.2649 205.548 39.843C205.126 39.4212 204.915 38.8821 204.915 38.2258L204.915 26.9758L198.165 26.9758C197.509 26.9758 196.97 26.7649 196.548 26.343C196.126 25.9212 195.915 25.3821 195.915 24.7258C195.915 24.1165 196.126 23.6008 196.548 23.179C196.97 22.7102 197.509 22.4758 198.165 22.4758L204.915 22.4758L204.915 15.7258C204.915 15.1165 205.126 14.6008 205.548 14.179C205.97 13.7102 206.509 13.4758 207.165 13.4758C207.774 13.4758 208.29 13.7102 208.712 14.179C209.181 14.6008 209.415 15.1165 209.415 15.7258L209.415 22.4758L225.165 22.4758C225.774 22.4758 226.29 22.7102 226.712 23.179C227.181 23.6008 227.415 24.1165 227.415 24.7258C227.415 25.3821 227.181 25.9212 226.712 26.343C226.29 26.7649 225.774 26.9758 225.165 26.9758L209.415 26.9758L209.415 38.2258C209.415 38.8821 209.181 39.4212 208.712 39.843C208.29 40.2649 207.774 40.4758 207.165 40.4758Z"/>
<path d="M254.415 40.4758C253.759 40.4758 253.22 40.2649 252.798 39.843C252.376 39.4212 252.165 38.8821 252.165 38.2258L252.165 29.2258C252.165 28.6165 252.376 28.1008 252.798 27.679C253.22 27.2102 253.759 26.9758 254.415 26.9758C255.024 26.9758 255.54 27.2102 255.962 27.679C256.431 28.1008 256.665 28.6165 256.665 29.2258L256.665 38.2258C256.665 38.8821 256.431 39.4212 255.962 39.843C255.54 40.2649 255.024 40.4758 254.415 40.4758ZM258.915 44.9758C258.259 44.9758 257.72 44.7649 257.298 44.343C256.876 43.9212 256.665 43.3821 256.665 42.7258C256.665 42.1165 256.876 41.6008 257.298 41.179C257.72 40.7102 258.259 40.4758 258.915 40.4758L279.165 40.4758L279.165 26.9758L258.915 26.9758C258.259 26.9758 257.72 26.7649 257.298 26.343C256.876 25.9212 256.665 25.3821 256.665 24.7258C256.665 24.1165 256.876 23.6008 257.298 23.179C257.72 22.7102 258.259 22.4758 258.915 22.4758L279.165 22.4758C280.384 22.4758 281.438 22.9212 282.329 23.8118C283.22 24.7024 283.665 25.7571 283.665 26.9758L283.665 40.4758C283.665 41.7415 283.22 42.8196 282.329 43.7102C281.438 44.554 280.384 44.9758 279.165 44.9758L258.915 44.9758Z"/>
<path d="M328.665 44.9758C328.009 44.9758 327.47 44.7649 327.048 44.343C326.626 43.9212 326.415 43.3821 326.415 42.7258C326.415 42.1165 326.626 41.6008 327.048 41.179C327.47 40.7102 328.009 40.4758 328.665 40.4758L346.665 40.4758C347.274 40.4758 347.79 40.7102 348.212 41.179C348.681 41.6008 348.915 42.1165 348.915 42.7258C348.915 43.3821 348.681 43.9212 348.212 44.343C347.79 44.7649 347.274 44.9758 346.665 44.9758L328.665 44.9758ZM324.165 40.4758C323.509 40.4758 322.97 40.2649 322.548 39.843C322.126 39.4212 321.915 38.8821 321.915 38.2258L321.915 29.2258C321.915 28.6165 322.126 28.1008 322.548 27.679C322.97 27.2102 323.509 26.9758 324.165 26.9758C324.774 26.9758 325.29 27.2102 325.712 27.679C326.181 28.1008 326.415 28.6165 326.415 29.2258L326.415 38.2258C326.415 38.8821 326.181 39.4212 325.712 39.843C325.29 40.2649 324.774 40.4758 324.165 40.4758ZM351.165 40.4758C350.509 40.4758 349.97 40.2649 349.548 39.843C349.126 39.4212 348.915 38.8821 348.915 38.2258L348.915 26.9758L328.665 26.9758C328.009 26.9758 327.47 26.7649 327.048 26.343C326.626 25.9212 326.415 25.3821 326.415 24.7258C326.415 24.1165 326.626 23.6008 327.048 23.179C327.47 22.7102 328.009 22.4758 328.665 22.4758L348.915 22.4758L348.915 15.7258C348.915 15.1165 349.126 14.6008 349.548 14.179C349.97 13.7102 350.509 13.4758 351.165 13.4758C351.774 13.4758 352.29 13.7102 352.712 14.179C353.181 14.6008 353.415 15.1165 353.415 15.7258L353.415 38.2258C353.415 38.8821 353.181 39.4212 352.712 39.843C352.29 40.2649 351.774 40.4758 351.165 40.4758Z"/>
<path d="M384.915 44.9758C384.259 44.9758 383.72 44.7649 383.298 44.343C382.876 43.9212 382.665 43.3821 382.665 42.7258C382.665 42.1165 382.876 41.6008 383.298 41.179C383.72 40.7102 384.259 40.4758 384.915 40.4758L402.915 40.4758C403.524 40.4758 404.04 40.7102 404.462 41.179C404.931 41.6008 405.165 42.1165 405.165 42.7258C405.165 43.3821 404.931 43.9212 404.462 44.343C404.04 44.7649 403.524 44.9758 402.915 44.9758L384.915 44.9758ZM407.415 40.4758C406.759 40.4758 406.22 40.2649 405.798 39.843C405.376 39.4212 405.165 38.8821 405.165 38.2258L405.165 29.2258C405.165 28.6165 405.376 28.1008 405.798 27.679C406.22 27.2102 406.759 26.9758 407.415 26.9758C408.024 26.9758 408.54 27.2102 408.962 27.679C409.431 28.1008 409.665 28.6165 409.665 29.2258L409.665 38.2258C409.665 38.8821 409.431 39.4212 408.962 39.843C408.54 40.2649 408.024 40.4758 407.415 40.4758ZM380.415 40.4758C379.759 40.4758 379.22 40.2649 378.798 39.843C378.376 39.4212 378.165 38.8821 378.165 38.2258L378.165 15.7258C378.165 15.1165 378.376 14.6008 378.798 14.179C379.22 13.7102 379.759 13.4758 380.415 13.4758C381.024 13.4758 381.54 13.7102 381.962 14.179C382.431 14.6008 382.665 15.1165 382.665 15.7258L382.665 22.4758L402.915 22.4758C403.524 22.4758 404.04 22.7102 404.462 23.179C404.931 23.6008 405.165 24.1165 405.165 24.7258C405.165 25.3821 404.931 25.9212 404.462 26.343C404.04 26.7649 403.524 26.9758 402.915 26.9758L382.665 26.9758L382.665 38.2258C382.665 38.8821 382.431 39.4212 381.962 39.843C381.54 40.2649 381.024 40.4758 380.415 40.4758Z"/>
</g>
</g>
<g id="Layer-3"/>
</svg>
